<svg width="19" height="18" viewBox="0 0 19 18" fill="none" xmlns="http://www.w3.org/2000/svg">
<path d="M17.4167 1.38462H14.25V0H12.6667V1.38462H6.33333V0H4.75V1.38462H1.58333C0.7125 1.38462 0 2.00769 0 2.76923V16.6154C0 17.3769 0.7125 18 1.58333 18H17.4167C18.2875 18 19 17.3769 19 16.6154V2.76923C19 2.00769 18.2875 1.38462 17.4167 1.38462ZM17.4167 16.6154H1.58333V6.92308H17.4167V16.6154ZM17.4167 5.53846H1.58333V2.76923H4.75V4.15385H6.33333V2.76923H12.6667V4.15385H14.25V2.76923H17.4167V5.53846Z" fill="#454645"/>
</svg>
