<svg width="292" height="202" viewBox="0 0 292 202" fill="none" xmlns="http://www.w3.org/2000/svg">
<path d="M161.763 6.79724L192.891 11.4713" stroke="#ADC2EB" stroke-width="3" stroke-linecap="round"/>
<path d="M23.962 147.619C27.0906 145.453 27.9162 141.096 25.8059 137.886C23.6956 134.675 19.4487 133.828 16.3201 135.994C13.1915 138.159 12.366 142.517 14.4762 145.727C16.5865 148.937 20.8334 149.784 23.962 147.619Z" fill="#CCF2FF"/>
<path d="M2 92.2819C4.67566 96.5287 7.53194 96.5748 10.5688 92.42C13.0996 88.2653 15.8834 88.2653 18.9203 92.42C21.451 96.5748 24.2349 96.5748 27.2717 92.42C29.8025 88.2653 32.5863 88.2653 35.6232 92.42" stroke="#ADC2EB" stroke-width="3" stroke-linecap="round"/>
<path d="M229.647 128.167L233.433 127.887L235.924 130.827L236.149 127.529L239.512 125.562L236.373 124.232L236.1 120.347L233.235 122.903L230.595 122.161L231.441 125.535L229.647 128.167Z" fill="#FFDBB8"/>
<path d="M244.045 80.3314L246.284 83.8418L244.729 87.4793L248.336 86.2672L252.068 88.9482L251.757 83.9702L255.179 81.6732L251.198 80.7153L250.017 77.0136L247.839 80.2043L244.045 80.3314Z" fill="#FFDBB8"/>
<path d="M69.9707 156.366L93.5066 136.891" stroke="#ADC2EB" stroke-width="4" stroke-linecap="round"/>
<path d="M185.885 144.217L186.207 148.098L183.551 150.989L187.978 151.071L189.99 155.117L191.358 151.401L195.542 150.41L192.726 147.685L192.806 143.143L189.506 145.621L185.885 144.217Z" fill="#FFC2C2"/>
<path d="M106.192 186.439C102.021 189.326 100.16 193.98 102.035 196.833C103.911 199.687 108.814 199.659 112.985 196.772C117.156 193.885 119.017 189.232 117.142 186.378C115.266 183.525 110.364 183.552 106.192 186.439Z" fill="#FFDBB8"/>
<path d="M132.535 15.1071C134.446 11.0431 133.377 9.79018 129.327 11.3482C125.784 13.4256 125.025 12.6466 127.05 9.01116C129.074 4.8564 128.062 3.55804 124.013 5.11607C120.47 7.19345 119.711 6.15476 121.735 2" stroke="#FFDBB8" stroke-width="3" stroke-linecap="round"/>
<path d="M147.323 38.7364L154.156 27.0511L166.304 34.8413L159.471 45.7476L147.323 38.7364Z" fill="#ADC2EB"/>
<path d="M97.3421 55.8486L96.5035 60.5084L91.9223 61.9846L95.6781 64.3893L96.3577 69.0763L99.4471 66.0151L103.989 66.8755L102.537 62.9538L104.88 59.1001L100.326 59.0186L97.3421 55.8486Z" fill="#FFDBB8"/>
<path d="M72.1464 109.058C71.7081 104.779 68.9865 101.565 66.0674 101.88C63.1483 102.195 61.1372 105.919 61.5755 110.198C62.0138 114.476 64.7355 117.69 67.6546 117.375C70.5737 117.06 72.5847 113.336 72.1464 109.058Z" fill="#FFFFCC"/>
<path d="M137.468 111.186L168.596 99.5007" stroke="#FFC2C2" stroke-width="3" stroke-linecap="round"/>
<path d="M269.06 151.217C266.255 148.626 261.935 148.858 259.41 151.736C256.884 154.614 257.111 159.047 259.915 161.638C262.72 164.229 267.04 163.996 269.565 161.119C272.09 158.241 271.864 153.808 269.06 151.217Z" fill="#FFC2C2"/>
<path d="M282.89 54.0293L292 64.9355L285.927 69.6096L277.575 59.4824L282.89 54.0293Z" fill="#CCF2FF"/>
<path d="M209.362 178.527L230.621 159.051" stroke="#FFFFCC" stroke-width="3" stroke-linecap="round"/>
<path d="M71.4892 18.1338L69.9707 6.44854L82.1183 4.8905L83.6367 16.5758L71.4892 18.1338Z" fill="#99FF99"/>
<path d="M150.934 151.886C150.199 149.417 147.652 148.028 145.246 148.783C142.84 149.537 141.486 152.15 142.222 154.619C142.957 157.088 145.504 158.477 147.91 157.722C150.316 156.968 151.67 154.354 150.934 151.886Z" fill="#FFFFCC"/>
<path d="M72.5047 52.9682L68.2703 51.6429L66.9846 46.3517L64.0359 50.3175L58.5119 50.125L61.824 54.0949L59.7956 58.6281L64.2157 57.4974L68.2644 61.2788L68.452 55.6107L72.5047 52.9682Z" fill="#ADC2EB"/>
<path d="M197.446 51.2012L189.095 64.4445" stroke="#FFFFCC" stroke-width="4" stroke-linecap="round"/>
<path d="M241.828 38.2859C246.06 38.3134 246.405 37.0288 242.862 34.4321C239.319 31.8353 239.825 30.2773 244.381 29.7579C248.43 29.7579 248.683 28.4596 245.14 25.8629C241.597 23.2661 242.103 21.9678 246.658 21.9678" stroke="#99FF99" stroke-width="3" stroke-linecap="round"/>
<path d="M215.357 75.4822L222.95 78.5982L216.117 83.2724L215.357 75.4822Z" fill="#FFC2C2"/>
<path d="M176.334 142.767L175.789 110.424C175.436 107.351 173.711 103.228 167.806 103.228C160.914 103.549 160.646 110.424 160.646 110.424L150.149 92.1475C147.524 88.2553 143.219 87.9866 140.526 89.5883C137.83 91.1899 137.243 94.438 137.243 94.438L135.059 91.6653C133.412 89.0406 128.492 88.7375 125.983 90.2289C121.816 92.7055 121.212 97.8377 123.905 100.672C123.728 100.486 121.672 99.7907 118.219 101.844C115.526 103.445 114.692 108.236 116.197 110.954C117.699 113.675 117.918 114.099 117.918 114.099C117.918 114.099 115.596 113.031 111.932 115.432C109.313 117.147 108.373 122.238 110.02 124.863L118.841 139.36L130.98 158.694C138.119 168.555 153.337 171.958 164.395 165.41C171.937 160.947 177.051 151.516 176.334 142.767Z" fill="#F4C6AD"/>
<path d="M137.567 94.9441L137.246 94.4343C137.256 94.3757 137.631 92.3986 139.076 90.7832L140.571 93.1254L145.028 100.111C147.743 104.376 150.481 108.628 153.241 112.865C153.496 113.249 153.584 113.716 153.486 114.163C153.388 114.61 153.112 115.001 152.718 115.249C152.324 115.497 151.846 115.583 151.387 115.488C150.928 115.392 150.527 115.123 150.273 114.739C147.503 110.483 144.756 106.213 142.031 101.929L137.567 94.9441ZM123.731 100.576C123.469 100.505 123.202 100.452 122.933 100.417C123.205 100.431 123.475 100.485 123.731 100.576Z" fill="#F1B99B"/>
<path d="M123.844 100.607C124.834 100.889 126.018 101.475 127.35 102.632C127.453 102.718 127.689 102.976 128.068 103.497C128.421 103.986 128.845 104.612 129.312 105.356C130.252 106.838 131.344 108.698 132.457 110.64C133.047 111.66 133.644 112.707 134.224 113.733C135.829 116.551 137.331 119.193 138.253 120.577C138.515 120.943 138.913 121.196 139.362 121.282C139.812 121.367 140.278 121.28 140.662 121.037C141.046 120.795 141.319 120.416 141.423 119.982C141.527 119.547 141.453 119.09 141.218 118.707C140.37 117.426 138.967 114.966 137.398 112.204L135.542 108.956C134.505 107.133 133.43 105.33 132.319 103.548C131.884 102.852 131.427 102.17 130.948 101.502C130.586 100.978 130.168 100.493 129.7 100.056C126.887 97.6203 124.293 96.9452 122.289 96.928C122.385 98.292 122.908 99.5905 123.844 100.607ZM117.766 114.043C117.399 113.964 117.029 113.905 116.656 113.864C117.193 113.881 117.575 113.978 117.766 114.04M117.907 114.071L118.239 114.154C119.391 114.453 120.452 114.929 121.166 115.549C121.526 115.859 122.067 116.496 122.763 117.46C123.441 118.394 124.187 119.527 124.961 120.743C125.59 121.728 126.241 122.778 126.877 123.808C127.778 125.258 128.647 126.66 129.361 127.735C129.616 128.119 130.016 128.388 130.474 128.484C130.933 128.58 131.411 128.494 131.805 128.246C132.199 127.998 132.475 127.608 132.574 127.161C132.672 126.715 132.584 126.248 132.33 125.865C131.521 124.626 130.73 123.375 129.958 122.114C129.322 121.084 128.651 120.002 127.965 118.928C127.228 117.756 126.458 116.605 125.654 115.476C124.94 114.491 124.201 113.568 123.516 112.972C122.243 111.87 120.604 111.202 119.151 110.826C118.097 110.549 117.012 110.398 115.921 110.378C116.002 110.575 116.094 110.771 116.197 110.954C117.504 113.32 117.843 113.95 117.907 114.071Z" fill="#F1B99B"/>
<path d="M196.446 142.505V109.834C196.092 106.734 193.795 102.567 187.833 102.567C180.871 102.894 180.599 109.834 180.599 109.834L169.997 91.3723C167.346 87.4457 162.999 87.1701 160.278 88.789C157.556 90.4079 156.959 93.6904 156.959 93.6904L154.75 90.8901C153.089 88.2379 148.12 87.9279 145.586 89.4365C141.377 91.9406 140.766 97.1245 143.487 99.9868C143.31 99.7974 141.229 99.0982 137.744 101.172C135.023 102.791 134.182 107.63 135.701 110.375C137.221 113.117 137.44 113.548 137.44 113.548C137.44 113.548 135.094 112.473 131.393 114.894C128.746 116.627 127.799 121.769 129.46 124.422L138.37 139.06L150.633 158.59C157.843 168.552 173.216 171.989 184.384 165.376C192 160.867 197.17 151.34 196.446 142.505Z" fill="#FFD7C2"/>
<path d="M156.977 93.6314L157.019 93.7038L161.483 100.696C164.209 104.977 166.957 109.245 169.728 113.499C169.854 113.689 170.017 113.853 170.208 113.981C170.399 114.11 170.614 114.2 170.841 114.248C171.068 114.295 171.303 114.299 171.531 114.258C171.759 114.217 171.977 114.133 172.172 114.01C172.367 113.888 172.535 113.729 172.667 113.542C172.799 113.356 172.892 113.147 172.941 112.925C172.989 112.704 172.993 112.476 172.951 112.253C172.909 112.031 172.823 111.819 172.697 111.629C169.936 107.39 167.198 103.137 164.484 98.8704C162.805 96.2492 161.204 93.7382 160.023 91.8851L158.822 89.9976C157.915 91.0463 157.283 92.2929 156.977 93.6314ZM143.208 99.8555C142.746 99.7665 142.276 99.7261 141.805 99.735C142.455 99.6867 142.929 99.7694 143.208 99.8555ZM147.757 102.115C146.527 101.019 145.027 100.252 143.403 99.89C142.503 98.8831 141.963 97.6187 141.865 96.2871C143.979 96.2664 147.152 96.9863 150.103 99.5421C150.831 100.172 151.754 101.433 152.665 102.78C153.627 104.206 154.726 105.956 155.825 107.74C156.645 109.073 157.458 110.42 158.218 111.677C159.525 113.836 160.674 115.741 161.43 116.878C161.556 117.068 161.642 117.28 161.684 117.503C161.726 117.725 161.722 117.954 161.674 118.175C161.625 118.396 161.532 118.606 161.4 118.792C161.268 118.978 161.1 119.137 160.905 119.26C160.71 119.383 160.492 119.467 160.264 119.507C160.036 119.548 159.802 119.545 159.575 119.497C159.348 119.45 159.133 119.359 158.942 119.231C158.751 119.102 158.587 118.938 158.461 118.748C157.312 116.955 156.193 115.145 155.104 113.316C154.355 112.073 153.567 110.767 152.793 109.51C151.801 107.879 150.774 106.268 149.714 104.678C148.746 103.245 148.071 102.391 147.757 102.115ZM137.854 113.619C137.701 113.559 137.547 113.501 137.391 113.447C136.836 112.418 136.274 111.393 135.705 110.371C135.563 110.113 135.442 109.843 135.345 109.565C136.522 109.552 137.935 109.934 139.186 110.426C140.698 111.012 142.101 111.836 143.339 112.865C144.053 113.485 144.806 114.491 145.512 115.541C146.247 116.637 147.036 117.942 147.82 119.275C148.297 120.085 148.771 120.901 149.23 121.693C150.158 123.343 151.133 124.967 152.153 126.564C152.279 126.754 152.365 126.966 152.407 127.188C152.449 127.411 152.445 127.639 152.397 127.86C152.348 128.082 152.255 128.291 152.123 128.477C151.991 128.664 151.823 128.823 151.628 128.945C151.433 129.068 151.215 129.152 150.987 129.193C150.759 129.234 150.524 129.23 150.298 129.183C150.071 129.135 149.856 129.045 149.665 128.916C149.473 128.788 149.31 128.624 149.184 128.434C148.294 127.091 147.195 125.189 146.085 123.267C145.645 122.506 145.202 121.745 144.756 120.987C143.979 119.668 143.229 118.435 142.554 117.429C141.848 116.378 141.317 115.724 140.992 115.438C140.054 114.671 138.994 114.057 137.854 113.619ZM183.9 115.528C183.292 114.505 182.066 112.373 180.599 109.803C180.726 108.242 181.261 106.738 182.154 105.435C184.267 109.149 186.162 112.462 186.96 113.799C187.196 114.194 187.26 114.665 187.14 115.106C187.019 115.548 186.723 115.925 186.317 116.155C185.911 116.384 185.429 116.447 184.975 116.329C184.522 116.211 184.135 115.923 183.9 115.528Z" fill="#F1B99B"/>
<path d="M119.045 82.0378L114.733 76.3511C114.577 76.146 114.474 75.9079 114.431 75.6562C114.388 75.4045 114.407 75.1465 114.487 74.9034C114.566 74.6603 114.703 74.439 114.887 74.2578C115.072 74.0765 115.297 73.9405 115.546 73.8608L120.352 72.4038C121.413 72.0834 122.473 72.9377 122.402 74.0399L121.907 81.1836C121.766 82.6441 119.928 83.2124 119.045 82.0378ZM110.704 87.6282L104.131 84.9415C103.893 84.8472 103.682 84.6974 103.518 84.5051C103.354 84.3129 103.24 84.0842 103.188 83.8392C103.135 83.5941 103.146 83.3403 103.218 83.1001C103.29 82.8598 103.421 82.6405 103.601 82.4615L107.029 78.9137C107.205 78.7325 107.424 78.5954 107.666 78.5142C107.908 78.433 108.167 78.41 108.42 78.4472C108.674 78.4844 108.914 78.5807 109.121 78.7279C109.328 78.8751 109.495 79.0688 109.609 79.2926L112.754 85.5271C113.355 86.8015 112.047 88.1793 110.704 87.6282ZM99.4941 97.6824L106.813 96.7524C108.315 96.5733 108.792 94.6789 107.545 93.8247L101.431 89.8188C101.208 89.6785 100.955 89.5918 100.691 89.5659C100.428 89.54 100.162 89.5757 99.9152 89.67C99.6686 89.7642 99.4485 89.9143 99.2733 90.1079C99.0981 90.3015 98.9726 90.533 98.9074 90.7833L97.6988 95.7157C97.6345 95.9673 97.6343 96.2304 97.6979 96.4822C97.7616 96.734 97.8873 96.9668 98.0642 97.1606C98.241 97.3543 98.4637 97.5031 98.7128 97.594C98.962 97.685 99.2302 97.7153 99.4941 97.6824Z" fill="#46A4FB"/>
</svg>
