<svg width="30" height="30" viewBox="0 0 30 30" fill="none" xmlns="http://www.w3.org/2000/svg">
<path d="M29.6751 13.401C29.6663 13.9202 29.7087 14.439 29.8015 14.9499C29.9712 15.8035 30.0324 16.6751 29.9839 17.544C29.9188 18.3715 29.794 19.1932 29.6104 20.0027C29.5392 20.3063 29.4222 20.5972 29.2634 20.8655C28.822 21.6538 28.3309 22.413 27.7929 23.1386C27.4157 23.6745 27.0061 24.1869 26.5665 24.6727C26.1059 25.1544 25.6147 25.6059 25.0961 26.0243C24.1609 26.834 23.1698 27.5643 22.1552 28.2857C21.9017 28.4702 21.6235 28.6179 21.3287 28.7244C20.9494 28.8569 20.5729 28.9924 20.2024 29.1455C19.6936 29.3575 19.1319 29.3428 18.5996 29.44C17.8643 29.5931 17.0909 29.5636 16.388 29.8787C16.2516 29.9281 16.1061 29.9472 15.9616 29.9346C15.2322 29.917 14.5058 29.9965 13.7765 29.9994C12.8646 30.007 11.9538 29.9391 11.0532 29.7963C10.238 29.6539 9.46917 29.3165 8.81218 28.8128C8.36067 28.4787 7.87694 28.1907 7.3682 27.953C6.57017 27.5594 5.8356 27.0482 5.18898 26.4365C4.16721 25.5129 3.23291 24.4966 2.39803 23.4007C1.36669 22.1079 0.683262 20.5721 0.41291 18.9397C0.304096 18.3037 0.0688246 17.6795 0.139407 17.0287C0.187208 16.1913 0.144812 15.3512 0.0129493 14.5229C-0.0202685 14.1328 0.0105277 13.7399 0.104117 13.3598C0.157497 13.1012 0.183134 12.8377 0.180584 12.5736C0.149735 11.8953 0.16152 11.2158 0.215874 10.539C0.297354 9.78908 0.540155 9.0658 0.927571 8.41889C1.31283 7.7917 1.69516 7.16451 2.05689 6.5226C3.24797 4.43198 6.32124 2.49447 8.5534 1.70239C8.91146 1.56143 9.2568 1.39002 9.58564 1.19004C9.9436 1.0088 10.3153 0.856191 10.6973 0.733635C11.2683 0.499415 11.8587 0.316146 12.4619 0.185955C13.0531 0.039631 13.6622 -0.0208644 14.2705 0.00633352C14.6299 0.031373 14.9905 0.031373 15.3499 0.00633352C16.1211 0.00572325 16.8878 0.123906 17.6232 0.356735C18.5529 0.574374 19.4583 0.885114 20.3259 1.28426C20.82 1.53749 21.2787 1.85257 21.7758 2.09107C22.566 2.49722 23.3232 2.96488 24.0403 3.48973C24.8283 4.01624 25.5123 4.68409 26.0577 5.45962C26.2548 5.75407 26.4842 6.01615 26.7018 6.29588C26.9601 6.60082 27.174 6.94085 27.3371 7.30585C27.4383 7.55129 27.575 7.78048 27.7429 7.98604C28.3605 8.77597 28.7791 9.7031 28.9634 10.6891C29.0597 11.0604 29.1896 11.4221 29.3516 11.7698C29.5817 12.2819 29.6923 12.8397 29.6751 13.401Z" fill="#FFD561"/>
<path d="M11.6325 7.36777C12.0972 7.38249 12.6413 7.2971 13.1618 7.43844C13.8171 7.58215 14.489 7.63565 15.1587 7.59744C15.6587 7.59744 16.1527 7.47966 16.6527 7.43844C17.983 7.33685 19.3191 7.33685 20.6494 7.43844C21.0786 7.46616 21.5001 7.56569 21.8964 7.73289C22.3493 7.92723 22.4846 8.1304 22.4846 8.61625C22.436 9.65871 22.1122 10.6697 21.5464 11.5461C21.3546 11.8152 21.0711 12.0047 20.7494 12.079C20.0149 12.2713 19.2515 12.3282 18.4967 12.2469C18.0662 12.241 17.637 12.1966 17.2144 12.1144C16.7984 12.0285 16.4181 11.8186 16.1236 11.5122C15.8291 11.2057 15.6342 10.8172 15.5646 10.3977C15.4234 9.8088 15.2293 9.21988 15.0646 8.6457C15.0573 8.59855 15.0322 8.55603 14.9944 8.52697C14.9566 8.4979 14.9091 8.48453 14.8617 8.48964C14.6064 8.49515 14.351 8.48433 14.097 8.45725C13.9 8.42781 13.8441 8.50142 13.8029 8.66926C13.653 9.43779 13.3912 10.1769 13.2148 10.9336C13.1673 11.2127 13.0352 11.4704 12.8363 11.6717C12.6373 11.873 12.3814 12.008 12.1031 12.0584C11.6063 12.1393 11.101 12.1542 10.6003 12.1026C9.96504 12.0525 9.33274 11.9907 8.70338 11.8847C8.396 11.8216 8.09901 11.7155 7.82111 11.5696C7.72622 11.5216 7.6505 11.4427 7.60643 11.3458C7.15556 10.4539 6.88663 9.48091 6.81532 8.48375C6.79856 8.33928 6.82617 8.19313 6.89448 8.06477C6.96278 7.93641 7.06853 7.83195 7.19763 7.76528C7.53357 7.58102 7.90873 7.48005 8.29167 7.47083C9.37687 7.39133 10.4709 7.41194 11.6325 7.36777Z" fill="#292929"/>
<path d="M15.1679 16.3161C14.8343 16.3146 14.5015 16.282 14.1739 16.2189C13.4327 16.0599 13.0945 15.5064 12.7975 14.8968C12.7357 14.7702 12.7975 14.6996 12.9298 14.6966L13.168 14.679C13.306 14.6506 13.4496 14.6727 13.5726 14.7413C13.6957 14.81 13.7901 14.9205 13.8386 15.0529C14.0709 15.5594 14.4003 16.0069 15.0326 16.0747C15.2714 16.0905 15.5104 16.0449 15.7266 15.9422C16.576 15.5806 17.3132 14.9981 17.8618 14.2549C18.0932 14.0014 18.3 13.7263 18.4794 13.4334C18.5162 13.3709 18.572 13.3218 18.6387 13.2932C18.7053 13.2646 18.7793 13.258 18.8499 13.2744C19.0617 13.2744 19.3499 13.1772 19.4528 13.351C19.5175 13.457 19.294 13.7072 19.1587 13.8604C18.6293 14.4758 18.1676 15.1589 17.45 15.5888C16.606 16.1012 16.109 16.3426 15.1679 16.3161Z" fill="#292929"/>
</svg>
