<svg width="36" height="36" viewBox="0 0 36 36" fill="none" xmlns="http://www.w3.org/2000/svg">
<mask id="mask0_335_7783" style="mask-type:luminance" maskUnits="userSpaceOnUse" x="0" y="0" width="36" height="36">
<path d="M36 18C36 8.05887 27.9411 0 18 0C8.05887 0 0 8.05887 0 18C0 27.9411 8.05887 36 18 36C27.9411 36 36 27.9411 36 18Z" fill="white"/>
</mask>
<g mask="url(#mask0_335_7783)">
<path d="M36 0H0V36H36V0Z" fill="#FF7D10"/>
<path d="M14.2928 40.9208L40.3945 28.7494C43.9984 27.0689 45.5576 22.785 43.8771 19.1811L31.7057 -6.92055C30.0251 -10.5244 25.7413 -12.0836 22.1374 -10.4031L-3.96428 1.76829C-7.56817 3.44881 -9.12736 7.73268 -7.44684 11.3366L4.72457 37.4382C6.40509 41.0421 10.6889 42.6013 14.2928 40.9208Z" fill="#0A0310"/>
<path d="M18.2725 17.2852C20.3586 18.0484 22.3488 17.8624 24.2431 16.727" stroke="white" stroke-width="2.22222" stroke-linecap="round"/>
<path d="M18.2346 11.2187C18.1793 10.6744 17.8058 10.2672 17.4003 10.3092C16.9947 10.3512 16.7108 10.8265 16.7661 11.3708C16.8213 11.9151 17.1949 12.3223 17.6004 12.2803C18.0059 12.2383 18.2898 11.763 18.2346 11.2187Z" fill="white"/>
<path d="M24.2121 10.6958C24.1568 10.1515 23.7833 9.74428 23.3778 9.78627C22.9723 9.82826 22.6884 10.3035 22.7436 10.8478C22.7989 11.3921 23.1724 11.7993 23.5779 11.7573C23.9834 11.7153 24.2674 11.2401 24.2121 10.6958Z" fill="white"/>
</g>
</svg>
