<svg width="24" height="24" viewBox="0 0 24 24" fill="none" xmlns="http://www.w3.org/2000/svg">
<circle cx="12" cy="12" r="12" fill="#D9D9D9"/>
<path d="M16.2778 6.5H7.72222C7.04721 6.5 6.5 7.04721 6.5 7.72222V16.2778C6.5 16.9528 7.04721 17.5 7.72222 17.5H16.2778C16.9528 17.5 17.5 16.9528 17.5 16.2778V7.72222C17.5 7.04721 16.9528 6.5 16.2778 6.5Z" stroke="white" stroke-width="1.5" stroke-linecap="round" stroke-linejoin="round"/>
<path d="M9.861 10.7779C10.3673 10.7779 10.7777 10.3675 10.7777 9.86125C10.7777 9.35499 10.3673 8.94458 9.861 8.94458C9.35474 8.94458 8.94434 9.35499 8.94434 9.86125C8.94434 10.3675 9.35474 10.7779 9.861 10.7779Z" stroke="white" stroke-width="1.5" stroke-linecap="round" stroke-linejoin="round"/>
<path d="M17.5004 13.8334L14.4449 10.7778L7.72266 17.5001" stroke="white" stroke-width="1.5" stroke-linecap="round" stroke-linejoin="round"/>
</svg>
