<svg width="30" height="30" viewBox="0 0 30 30" fill="none" xmlns="http://www.w3.org/2000/svg">
<path d="M14.4352 0.0144019C15.4911 -0.0288326 16.5487 0.0253248 17.5949 0.176204C18.9583 0.337726 20.2636 0.82798 21.4017 1.60594C21.9268 1.98838 22.5158 2.27374 23.012 2.70913C23.1896 2.85879 23.3537 3.02419 23.5023 3.20336C23.9341 3.71991 24.4273 4.18037 24.9705 4.57426C25.3879 4.88838 25.7407 5.28211 26.0092 5.73334C26.1522 5.95672 26.3196 6.16298 26.5083 6.34819C27.0155 6.82819 27.4914 7.34115 27.9329 7.88383C28.445 8.58136 28.7987 9.38501 28.9687 10.2373C29.1022 10.8757 29.2589 11.5082 29.4417 12.1377C29.6535 12.9114 29.5519 13.6851 29.4968 14.4588C29.4356 15.1339 29.3003 15.7999 29.0935 16.4446C28.9517 17.0791 28.8471 17.7215 28.7801 18.3686C28.5701 19.5258 28.2624 20.6626 27.8604 21.7664C27.4251 22.9666 26.9203 24.1522 26.0847 25.123C25.1533 26.2056 24.2045 27.2706 22.9221 27.9442C22.2871 28.3293 21.6313 28.678 20.9577 28.9886C19.8116 29.4207 18.6213 29.7217 17.4092 29.8859C16.6391 29.9783 15.8634 30.0146 15.0881 29.9947C13.9593 30.0058 12.8347 29.8532 11.7485 29.5417C11.0202 29.321 10.2542 29.2769 9.53173 29.0298C8.51893 28.7184 7.57439 28.2131 6.74922 27.5412C6.43159 27.2634 6.07946 27.0291 5.7018 26.844C4.5687 26.2632 3.55612 25.4673 2.71907 24.4993C2.13257 23.803 1.60185 23.0603 1.13197 22.2783C1.00294 22.0444 0.905361 21.7941 0.841823 21.534C0.632917 20.8456 0.528447 20.1337 0.371767 19.4335C0.215088 18.7333 0.183171 18.0773 0.0816197 17.3977C-0.0866659 16.2004 0.0410083 15.009 0.145461 13.8205C0.235407 12.8202 0.342761 11.82 0.525554 10.8286C0.630007 10.255 0.952079 9.77543 1.13197 9.23413C1.25974 8.87469 1.43967 8.53658 1.66583 8.23097C2.17669 7.57752 2.64297 6.88949 3.06144 6.17168C3.52858 5.27147 4.22204 4.59779 4.86036 3.86233C5.05186 3.64463 5.26947 3.45341 5.44066 3.22689C6.02095 2.50026 6.77243 2.03251 7.4891 1.51474C8.01497 1.18101 8.61179 0.979298 9.22998 0.926374C9.86432 0.819294 10.4858 0.644761 11.084 0.405667C11.7314 0.192048 12.4034 0.0644867 13.0831 0.0261718C13.5333 -0.00100128 13.9846 -0.00493133 14.4352 0.0144019Z" fill="#FFD561"/>
<path d="M19.8787 8.65448C19.5771 8.7563 19.2532 8.76956 18.9444 8.69273C18.195 8.57044 17.4645 8.34992 16.7712 8.0367C16.6929 7.99551 16.6116 7.96315 16.5391 7.91608C16.2693 7.74546 16.249 7.5513 16.4492 7.30124C16.7067 7.03224 16.9996 6.80059 17.3196 6.61285C17.559 6.47069 17.7861 6.30831 17.9985 6.12744C18.3293 5.81561 18.721 5.90386 19.104 5.91269C19.1446 5.91269 19.2056 5.93622 19.2085 5.99506C19.2114 6.0539 19.1475 6.05978 19.1127 6.08626C18.5692 6.46281 18.0285 6.84133 17.4908 7.22181C17.459 7.24617 17.4299 7.27377 17.4037 7.30418C17.16 7.56012 17.189 7.71604 17.5024 7.87196C18.1671 8.16908 18.8646 8.38438 19.5798 8.51328C19.6367 8.51414 19.6926 8.52717 19.7441 8.5515C19.7956 8.57584 19.8415 8.61093 19.8787 8.65448Z" fill="#292929"/>
<path d="M17.2262 10.5873C17.2308 10.4685 17.2118 10.3499 17.1702 10.2387C17.1285 10.1275 17.0652 10.026 16.9839 9.94031C16.9026 9.85458 16.805 9.7864 16.6971 9.73986C16.5891 9.69331 16.473 9.66937 16.3557 9.66946H16.1671C15.8815 9.65896 15.5958 9.68565 15.317 9.74889C14.4988 9.94011 13.6834 10.1372 12.8681 10.3373C12.2068 10.4597 11.5537 10.6237 10.9125 10.8286C10.753 10.8874 10.6978 10.9521 10.7559 11.1227C10.8139 11.2934 10.8603 11.5258 10.9096 11.7317C11.0332 12.463 11.3233 13.155 11.7569 13.7527C11.9416 13.9957 12.1802 14.1912 12.4532 14.3235C13.2016 14.7076 14.0508 14.8415 14.8789 14.7059C15.1645 14.6753 15.439 14.5767 15.68 14.4182C15.921 14.2598 16.1217 14.0459 16.2658 13.7939C16.4065 13.5418 16.5325 13.2815 16.643 13.0143C16.936 12.223 17.2523 11.4463 17.2262 10.5873ZM16.2484 11.2463C16.1712 11.6154 16.0674 11.9782 15.9379 12.3318C15.7766 12.9465 15.4997 13.5239 15.1226 14.0322C14.757 14.4882 14.2086 14.5617 13.5935 14.3264C12.7608 14.0116 12.3285 13.3526 12.0789 12.5348C11.9268 12.0688 11.8008 11.5944 11.7018 11.1139C11.6524 10.9521 11.7975 10.9315 11.8961 10.8962C12.3342 10.7598 12.7799 10.6497 13.2308 10.5667C14.1013 10.3667 14.9717 10.1666 15.816 9.95482C15.8765 9.93029 15.9441 9.93071 16.0042 9.956C16.0644 9.98129 16.1125 10.0294 16.1381 10.0901C16.3154 10.4481 16.3557 10.86 16.2513 11.2463H16.2484Z" fill="#292929"/>
<path d="M12.1171 7.00999C12.1164 6.81916 12.0612 6.63261 11.9583 6.47287C11.8553 6.31313 11.7089 6.18703 11.5368 6.10979C11.029 5.86267 10.4952 5.92445 9.97 5.97741C9.59642 5.98401 9.2304 6.08513 8.90516 6.27159C8.80738 6.32563 8.72599 6.40568 8.66975 6.50314C8.61351 6.60059 8.58455 6.71176 8.58599 6.82466C8.58599 7.30712 8.586 7.78958 8.63823 8.2691C8.63743 8.35236 8.65315 8.43494 8.68447 8.51191C8.71579 8.58888 8.76207 8.65868 8.82055 8.71714C8.87902 8.7756 8.94849 8.82154 9.02484 8.85222C9.10119 8.8829 9.18284 8.89769 9.26494 8.89571C9.66244 8.92219 10.0571 8.93984 10.4517 8.96043C10.904 8.98844 11.3578 8.93566 11.7921 8.80452C11.914 8.76039 12.0126 8.71038 12.0272 8.56623C12.0946 8.05041 12.1247 7.53027 12.1171 7.00999Z" fill="white"/>
<path d="M25.4145 10.7992C25.2374 10.8223 25.0591 10.835 24.8806 10.8374C24.9241 9.51065 24.1378 8.00736 23.2703 7.03067C22.8165 6.47629 22.2357 6.04299 21.5787 5.76862C21.512 5.74214 21.4453 5.71567 21.3814 5.68331C21.3176 5.65095 21.2276 5.6333 21.2305 5.54798C21.2334 5.46267 21.3263 5.4509 21.393 5.43031C22.3302 5.11968 23.1367 4.49783 23.6823 3.66521C24.2388 2.76495 24.6245 1.76723 24.8197 0.723365C25.1417 0.691005 25.5712 0.490961 25.8816 0.632169C26.1282 0.743959 26.0354 1.02343 26.0383 1.28231C26.034 1.7653 26.0856 2.24713 26.1921 2.71793C26.3367 3.26096 26.6615 3.73683 27.1118 4.0653C27.6928 4.56692 28.3001 5.03633 28.9311 5.4715C29.2087 5.62802 29.5001 5.75801 29.8015 5.85982C29.8828 5.89218 29.9843 5.9216 29.9988 6.01574C30.0133 6.10988 29.8972 6.14812 29.8276 6.18931C29.0136 6.63314 28.2829 7.21866 27.6689 7.91911C27.2966 8.33713 26.9515 8.77934 26.636 9.24294C26.546 9.38414 26.0557 10.6815 26.0064 10.6962C25.8116 10.7442 25.6138 10.7786 25.4145 10.7992Z" fill="#FFB340"/>
<path d="M9.69706 8.61342C9.6296 8.57812 9.57274 8.5251 9.53242 8.45989C9.49209 8.39468 9.46979 8.31969 9.46785 8.24275C9.44365 7.77697 9.45141 7.31005 9.49106 6.84537C9.49292 6.80144 9.50335 6.75832 9.52175 6.71851C9.54016 6.6787 9.56616 6.64298 9.59828 6.61343C9.63039 6.58388 9.66797 6.56109 9.70883 6.54636C9.7497 6.53164 9.79304 6.52528 9.83634 6.52765C10.2319 6.50457 10.6287 6.52429 11.0201 6.58649C11.1101 6.58649 11.1536 6.62767 11.1855 6.73946C11.3509 7.29253 11.2726 7.85442 11.2581 8.41043C11.2581 8.52516 11.1768 8.57811 11.0811 8.61342C10.9853 8.64872 10.9621 8.61342 10.9041 8.65166C10.8067 8.65239 10.7096 8.66224 10.6139 8.68108C10.5791 8.68108 10.5414 8.68108 10.5124 8.6546H10.3151C10.1084 8.68185 9.89845 8.66786 9.69706 8.61342Z" fill="#292929"/>
<path d="M12.082 12.5377C12.558 12.2732 13.1051 12.1701 13.643 12.2435C13.7461 12.2501 13.8467 12.2777 13.939 12.3247C14.0312 12.3717 14.1131 12.4372 14.1798 12.5171C14.2697 12.6112 14.3278 12.6407 14.4525 12.5406C14.8152 12.2465 15.2562 12.2965 15.6828 12.3112C15.7669 12.3112 15.8539 12.3288 15.941 12.3377C15.7797 12.9524 15.5028 13.5297 15.1257 14.038C14.7601 14.494 14.2117 14.5676 13.5966 14.3322C12.7639 14.0145 12.3316 13.3555 12.082 12.5377Z" fill="#D6674C"/>
</svg>
