<svg width="30" height="30" viewBox="0 0 30 30" fill="none" xmlns="http://www.w3.org/2000/svg">
<path d="M29.9985 14.2184C29.9734 15.1162 29.8948 16.0118 29.7632 16.9002C29.6985 17.489 29.6602 18.0924 29.5543 18.6665C29.3334 19.8893 29.0277 21.0952 28.6395 22.2755C28.3454 23.1587 27.8189 23.8799 27.3188 24.6306C26.6423 25.655 25.7157 26.3968 24.7539 27.1269C24.4597 27.3565 24.1656 27.5949 23.8714 27.8393C23.345 28.2335 22.7537 28.5324 22.1242 28.7224C20.9492 29.1728 19.7364 29.5176 18.5003 29.7527C17.8152 29.8806 17.1225 29.9632 16.4266 30C15.86 29.9941 15.2947 29.9459 14.7353 29.8557C13.2469 29.6791 11.7938 29.3641 10.3231 29.0462C9.68882 28.9138 9.07604 28.6939 8.5023 28.3927C7.47508 27.8395 6.49951 27.1951 5.5873 26.4675C4.99901 25.9935 4.42837 25.4607 3.82243 24.9661C3.63712 24.8101 3.44004 24.6718 3.23414 24.5216C2.32533 23.8598 1.63331 22.9428 1.24572 21.887C1.08689 21.4454 0.969214 21.0038 0.845672 20.5387C0.73438 20.0917 0.597888 19.6514 0.436823 19.2199C0.2005 18.482 0.0649293 17.7156 0.0338266 16.9414C-0.0750074 15.9199 0.104432 14.9161 0.210325 13.9093C0.295627 13.1322 0.395636 12.355 0.466231 11.5749C0.573526 10.7426 0.770779 9.92429 1.05452 9.13453C1.56928 7.50368 2.56643 6.16426 3.58712 4.83368C3.91656 4.40388 4.21952 3.95054 4.57544 3.54136C5.1519 2.9036 5.81891 2.35412 6.55506 1.91051C7.51494 1.2584 8.54997 0.72466 9.6377 0.320875C10.0339 0.177879 10.4494 0.0955078 10.8702 0.076541C11.4379 0.0588783 12.0026 0.00588755 12.5703 0C13.5263 0 14.4735 0.220786 15.4353 0.232561C16.6735 0.234723 17.91 0.32424 19.1357 0.500445C20.132 0.67916 21.1036 0.975611 22.0301 1.38358C22.786 1.69562 23.5508 1.98705 24.3126 2.26671C24.8331 2.4383 25.3324 2.6684 25.801 2.9526C25.9122 3.01923 26.0116 3.10378 26.0952 3.20283C26.3746 3.56491 26.7923 3.77098 27.0806 4.13306C27.5299 4.74014 27.908 5.397 28.2071 6.09067C28.666 7.04739 28.869 8.0836 29.119 9.10215C29.3837 10.1678 29.6132 11.2423 29.8279 12.3197C29.953 12.9446 30.0103 13.5812 29.9985 14.2184Z" fill="#FFD561"/>
<path d="M21.0413 5.25163C20.6808 5.03079 20.2815 4.88091 19.8647 4.81007C19.3241 4.66539 18.7601 4.63036 18.2058 4.70703C17.7669 4.81392 17.3438 4.97718 16.9468 5.19276C16.8082 5.25511 16.6892 5.35412 16.6026 5.47913C16.5161 5.60414 16.4652 5.75042 16.4556 5.90221C16.4041 6.24569 16.4041 6.59493 16.4556 6.93842C16.6438 7.68025 16.8733 8.4103 17.7528 8.60753C17.9874 8.66567 18.229 8.69044 18.4705 8.68113C18.6568 8.68478 18.843 8.67 19.0264 8.63697C19.5614 8.59054 20.0665 8.37034 20.4648 8.00995C20.9908 7.51947 21.3368 6.86631 21.4473 6.15537C21.4881 5.98103 21.4705 5.79806 21.3972 5.63472C21.3238 5.47138 21.1988 5.33676 21.0413 5.25163Z" fill="white"/>
<path d="M13.4495 5.13397C13.3878 5.0692 13.3077 5.025 13.22 5.00739C12.3376 4.79544 11.4728 4.54227 10.5521 4.59526C10.2805 4.61461 10.0201 4.71168 9.80206 4.87492C9.75205 4.91024 9.21377 5.40774 9.27554 5.43718C8.85197 6.12308 8.72843 6.82369 9.16377 7.56258C9.38732 7.94233 9.60499 8.33974 10.0462 8.47809C10.6582 8.66748 11.3089 8.69486 11.9346 8.55758C13.0112 8.32208 13.626 7.55964 13.9525 6.5617C14.176 5.88463 13.9731 5.40774 13.4495 5.13397Z" fill="white"/>
<path d="M20.7772 6.19952C20.7978 6.96195 20.3919 7.56837 19.9183 8.14535C19.8894 8.18015 19.8529 8.20782 19.8116 8.2262C19.7703 8.24458 19.7253 8.25317 19.6801 8.25132C19.3445 8.26064 19.0112 8.19213 18.7065 8.05115C17.9387 7.6714 17.5563 7.01199 17.2151 6.30255C17.1093 6.00253 17.1093 5.67528 17.2151 5.37526C17.246 5.28116 17.3048 5.19868 17.3836 5.13875C17.4624 5.07882 17.5575 5.04427 17.6564 5.03967C17.9929 4.99532 18.3344 5.00426 18.6682 5.06616C18.8859 5.10737 18.9418 5.30461 19.0212 5.46946C19.1006 5.63431 19.1241 5.63431 19.2359 5.51656C19.4683 5.27517 19.7771 5.32816 20.0595 5.33699C20.7243 5.35465 20.789 5.43413 20.7655 6.09648L20.7772 6.19952Z" fill="#D6674C"/>
<path d="M9.46112 5.29577C9.48395 5.28821 9.50491 5.27591 9.52265 5.25968C9.54039 5.24344 9.55451 5.22364 9.56407 5.20156C10.0071 5.04846 10.4817 5.00999 10.9436 5.0897C11.0478 5.09619 11.1492 5.12601 11.2403 5.17696C11.3315 5.22791 11.41 5.29869 11.4701 5.38408C11.526 5.45767 11.5907 5.53127 11.6672 5.3988C11.7479 5.25689 11.8711 5.14391 12.0194 5.07578C12.1677 5.00765 12.3336 4.98781 12.4938 5.01905C12.6703 5.01905 12.8497 5.03966 13.0232 5.06321C13.1968 5.08676 13.3527 5.16918 13.3497 5.37819C13.3497 5.84331 13.4115 6.31725 13.2027 6.76176C12.8678 7.18574 12.5062 7.5879 12.1202 7.96577C12.0312 8.05747 11.9096 8.11036 11.7819 8.11296C11.3578 8.13231 10.9406 7.99976 10.6053 7.7391C10.2055 7.47835 9.86403 7.13756 9.60231 6.73821C9.5011 6.50991 9.42229 6.27232 9.367 6.02877C9.33063 5.78042 9.36319 5.52684 9.46112 5.29577Z" fill="#D6674C"/>
<path d="M12.0879 12.6348C12.232 12.6083 12.2644 12.4729 12.3232 12.3757C12.4664 12.1384 12.6965 11.9662 12.9644 11.8959C13.2645 11.7739 13.5889 11.7239 13.9118 11.75C14.2346 11.7761 14.5468 11.8774 14.8234 12.046C14.9646 12.1402 15.0235 12.0754 15.0823 11.9636C15.1889 11.7274 15.3474 11.5185 15.5461 11.3523C15.7447 11.1861 15.9784 11.067 16.2295 11.0039C16.6442 10.9127 17.0795 10.8832 17.4296 11.2335C17.5296 11.3336 17.6031 11.472 17.759 11.5102C17.2354 12.099 16.7883 12.7496 16.1353 13.2265C15.5979 13.6131 14.9452 13.8057 14.2841 13.7725C13.6231 13.7393 12.9929 13.4825 12.4968 13.0439C12.3556 12.9115 12.2232 12.7702 12.0879 12.6348Z" fill="#D6674C"/>
<path d="M19.1178 9.36699C18.5153 9.29982 17.9092 9.26935 17.3029 9.27573C16.1499 9.29928 14.9968 9.35423 13.8438 9.44058C12.8142 9.53531 11.7792 9.55794 10.7464 9.50829C10.6897 9.5024 10.6325 9.5024 10.5758 9.50829C10.5023 9.52301 10.4435 9.55539 10.4464 9.65253C10.4464 10.047 10.4464 10.4415 10.4846 10.83C10.5129 11.3576 10.6704 11.8702 10.9433 12.3224C11.2162 12.7747 11.5961 13.1528 12.0495 13.4235C12.6896 13.8046 13.4226 14.0012 14.1673 13.9917C14.4612 14.0096 14.7559 14.0096 15.0498 13.9917C15.573 13.9888 16.0893 13.8714 16.5624 13.6476C17.0355 13.4239 17.4539 13.0992 17.7883 12.6964C18.0589 12.402 18.3089 12.0782 18.5707 11.7691C19.0766 11.1804 19.2502 10.4532 19.409 9.72613C19.4649 9.47002 19.3825 9.39348 19.1178 9.36699ZM18.4501 9.7379C18.3343 10.3654 18.0997 10.9649 17.7589 11.5042C17.2353 12.0929 16.7882 12.7435 16.1352 13.2204C15.5978 13.6071 14.945 13.7996 14.284 13.7664C13.6229 13.7333 12.9927 13.4764 12.4966 13.0379C12.3554 12.9054 12.223 12.7641 12.0877 12.6287C11.7165 12.1358 11.4959 11.5458 11.4524 10.9301C11.4151 10.6579 11.3955 10.3836 11.3936 10.1088C11.3866 10.0676 11.3893 10.0253 11.4012 9.98517C11.4132 9.94508 11.4342 9.90827 11.4626 9.87757C11.491 9.84687 11.5261 9.8231 11.5651 9.80807C11.6041 9.79304 11.6461 9.78717 11.6877 9.79089C12.2054 9.75851 12.7201 9.72024 13.2349 9.71435C13.9291 9.71435 14.6174 9.61426 15.3116 9.58777C16.301 9.51222 17.294 9.49551 18.2854 9.53773C18.4295 9.55539 18.4825 9.60838 18.4501 9.7379Z" fill="#292929"/>
</svg>
